<mxfile host="app.diagrams.net" agent="Mozilla/5.0 (Windows NT 10.0; Win64; x64) AppleWebKit/537.36 (KHTML, like Gecko) Chrome/127.0.0.0 Safari/537.36 OPR/113.0.0.0 (Edition Yx GX)" version="24.7.17" pages="2">
  <diagram name="Тестовая попытка (много акторов)" id="epbPIA2_qO3FQGjWWez9">
    <mxGraphModel dx="1639" dy="888" grid="1" gridSize="10" guides="1" tooltips="1" connect="1" arrows="1" fold="1" page="1" pageScale="1" pageWidth="827" pageHeight="1169" math="0" shadow="0">
      <root>
        <mxCell id="0" />
        <mxCell id="1" parent="0" />
        <mxCell id="hudEPNNApawxsZpU8fDK-15" value="Система онлайн-покупок" style="rounded=0;whiteSpace=wrap;html=1;fillColor=#dae8fc;strokeColor=#6c8ebf;align=center;verticalAlign=top;" vertex="1" parent="1">
          <mxGeometry x="300" y="120" width="270" height="582" as="geometry" />
        </mxCell>
        <mxCell id="hudEPNNApawxsZpU8fDK-4" value="&lt;font face=&quot;Helvetica, VP Default&quot;&gt;Веб-клиенты&lt;/font&gt;" style="shape=umlActor;verticalLabelPosition=bottom;verticalAlign=top;html=1;outlineConnect=0;" vertex="1" parent="1">
          <mxGeometry x="104" y="381" width="30" height="60" as="geometry" />
        </mxCell>
        <mxCell id="hudEPNNApawxsZpU8fDK-31" style="edgeStyle=orthogonalEdgeStyle;rounded=0;orthogonalLoop=1;jettySize=auto;html=1;exitX=0.75;exitY=0.1;exitDx=0;exitDy=0;exitPerimeter=0;entryX=0.02;entryY=0.627;entryDx=0;entryDy=0;endArrow=none;endFill=0;entryPerimeter=0;" edge="1" parent="1" source="hudEPNNApawxsZpU8fDK-6" target="hudEPNNApawxsZpU8fDK-16">
          <mxGeometry relative="1" as="geometry">
            <Array as="points">
              <mxPoint x="290" y="486" />
              <mxPoint x="290" y="210" />
            </Array>
          </mxGeometry>
        </mxCell>
        <mxCell id="hudEPNNApawxsZpU8fDK-32" style="edgeStyle=orthogonalEdgeStyle;rounded=0;orthogonalLoop=1;jettySize=auto;html=1;exitX=0.75;exitY=0.1;exitDx=0;exitDy=0;exitPerimeter=0;entryX=0;entryY=0.5;entryDx=0;entryDy=0;endArrow=none;endFill=0;" edge="1" parent="1" source="hudEPNNApawxsZpU8fDK-6" target="hudEPNNApawxsZpU8fDK-19">
          <mxGeometry relative="1" as="geometry">
            <Array as="points">
              <mxPoint x="320" y="486" />
              <mxPoint x="320" y="570" />
            </Array>
          </mxGeometry>
        </mxCell>
        <mxCell id="hudEPNNApawxsZpU8fDK-6" value="Новые клиенты" style="shape=umlActor;verticalLabelPosition=bottom;verticalAlign=top;html=1;outlineConnect=0;" vertex="1" parent="1">
          <mxGeometry x="226" y="480" width="30" height="60" as="geometry" />
        </mxCell>
        <mxCell id="hudEPNNApawxsZpU8fDK-29" style="edgeStyle=orthogonalEdgeStyle;rounded=0;orthogonalLoop=1;jettySize=auto;html=1;entryX=0.012;entryY=0.389;entryDx=0;entryDy=0;endArrow=none;endFill=0;exitX=0.75;exitY=0.1;exitDx=0;exitDy=0;exitPerimeter=0;entryPerimeter=0;" edge="1" parent="1" source="hudEPNNApawxsZpU8fDK-10" target="hudEPNNApawxsZpU8fDK-16">
          <mxGeometry relative="1" as="geometry">
            <mxPoint x="260" y="290" as="sourcePoint" />
            <Array as="points">
              <mxPoint x="310" y="287" />
              <mxPoint x="310" y="191" />
            </Array>
          </mxGeometry>
        </mxCell>
        <mxCell id="hudEPNNApawxsZpU8fDK-30" style="edgeStyle=orthogonalEdgeStyle;rounded=0;orthogonalLoop=1;jettySize=auto;html=1;exitX=0.75;exitY=0.1;exitDx=0;exitDy=0;exitPerimeter=0;endArrow=none;endFill=0;" edge="1" parent="1" source="hudEPNNApawxsZpU8fDK-10" target="hudEPNNApawxsZpU8fDK-17">
          <mxGeometry relative="1" as="geometry">
            <Array as="points">
              <mxPoint x="310" y="287" />
              <mxPoint x="310" y="370" />
            </Array>
          </mxGeometry>
        </mxCell>
        <mxCell id="hudEPNNApawxsZpU8fDK-10" value="&lt;div&gt;Зарегистрированные&lt;/div&gt;&lt;div&gt;Клиенты&lt;/div&gt;" style="shape=umlActor;verticalLabelPosition=bottom;verticalAlign=top;html=1;outlineConnect=0;" vertex="1" parent="1">
          <mxGeometry x="224" y="281" width="30" height="60" as="geometry" />
        </mxCell>
        <mxCell id="hudEPNNApawxsZpU8fDK-12" style="edgeStyle=orthogonalEdgeStyle;rounded=0;orthogonalLoop=1;jettySize=auto;html=1;entryX=1;entryY=0.3333333333333333;entryDx=0;entryDy=0;entryPerimeter=0;endArrow=block;endFill=0;" edge="1" parent="1" source="hudEPNNApawxsZpU8fDK-10">
          <mxGeometry relative="1" as="geometry">
            <mxPoint x="224" y="300.0046511627907" as="sourcePoint" />
            <mxPoint x="134" y="390" as="targetPoint" />
            <Array as="points">
              <mxPoint x="179" y="320" />
              <mxPoint x="179" y="390" />
            </Array>
          </mxGeometry>
        </mxCell>
        <mxCell id="hudEPNNApawxsZpU8fDK-13" style="edgeStyle=orthogonalEdgeStyle;rounded=0;orthogonalLoop=1;jettySize=auto;html=1;entryX=1;entryY=0.3333333333333333;entryDx=0;entryDy=0;entryPerimeter=0;endArrow=block;endFill=0;" edge="1" parent="1">
          <mxGeometry relative="1" as="geometry">
            <mxPoint x="226" y="520" as="sourcePoint" />
            <mxPoint x="134" y="411" as="targetPoint" />
            <Array as="points">
              <mxPoint x="180" y="520" />
              <mxPoint x="180" y="411" />
            </Array>
          </mxGeometry>
        </mxCell>
        <mxCell id="hudEPNNApawxsZpU8fDK-16" value="Просмотр товаров" style="ellipse;whiteSpace=wrap;html=1;" vertex="1" parent="1">
          <mxGeometry x="345" y="160" width="180" height="80" as="geometry" />
        </mxCell>
        <mxCell id="hudEPNNApawxsZpU8fDK-34" value="&amp;lt;&amp;lt;include&amp;gt;&amp;gt;" style="edgeStyle=orthogonalEdgeStyle;rounded=0;orthogonalLoop=1;jettySize=auto;html=1;exitX=0.5;exitY=0;exitDx=0;exitDy=0;entryX=0.5;entryY=1;entryDx=0;entryDy=0;dashed=1;endArrow=open;endFill=0;" edge="1" parent="1" source="hudEPNNApawxsZpU8fDK-17" target="hudEPNNApawxsZpU8fDK-16">
          <mxGeometry relative="1" as="geometry" />
        </mxCell>
        <mxCell id="hudEPNNApawxsZpU8fDK-17" value="&lt;font face=&quot;Helvetica, VP Default&quot;&gt;Закупки&lt;/font&gt;" style="ellipse;whiteSpace=wrap;html=1;" vertex="1" parent="1">
          <mxGeometry x="345" y="300" width="180" height="80" as="geometry" />
        </mxCell>
        <mxCell id="hudEPNNApawxsZpU8fDK-40" style="edgeStyle=orthogonalEdgeStyle;rounded=0;orthogonalLoop=1;jettySize=auto;html=1;exitX=1;exitY=0.5;exitDx=0;exitDy=0;endArrow=none;endFill=0;" edge="1" parent="1" source="hudEPNNApawxsZpU8fDK-18" target="hudEPNNApawxsZpU8fDK-22">
          <mxGeometry relative="1" as="geometry">
            <Array as="points">
              <mxPoint x="670" y="480" />
              <mxPoint x="670" y="470" />
            </Array>
          </mxGeometry>
        </mxCell>
        <mxCell id="hudEPNNApawxsZpU8fDK-18" value="Проверка товаров" style="ellipse;whiteSpace=wrap;html=1;" vertex="1" parent="1">
          <mxGeometry x="345" y="440" width="180" height="80" as="geometry" />
        </mxCell>
        <mxCell id="hudEPNNApawxsZpU8fDK-19" value="Регистрация клиентов" style="ellipse;whiteSpace=wrap;html=1;" vertex="1" parent="1">
          <mxGeometry x="345" y="590" width="180" height="80" as="geometry" />
        </mxCell>
        <mxCell id="hudEPNNApawxsZpU8fDK-28" style="edgeStyle=orthogonalEdgeStyle;rounded=0;orthogonalLoop=1;jettySize=auto;html=1;entryX=1;entryY=0.5;entryDx=0;entryDy=0;endArrow=none;endFill=0;" edge="1" parent="1" target="hudEPNNApawxsZpU8fDK-19">
          <mxGeometry relative="1" as="geometry">
            <mxPoint x="710" y="270" as="sourcePoint" />
            <Array as="points">
              <mxPoint x="618" y="270" />
              <mxPoint x="618" y="630" />
            </Array>
          </mxGeometry>
        </mxCell>
        <mxCell id="hudEPNNApawxsZpU8fDK-20" value="Аутентификация" style="shape=umlActor;verticalLabelPosition=bottom;verticalAlign=top;html=1;outlineConnect=0;" vertex="1" parent="1">
          <mxGeometry x="710" y="240" width="30" height="60" as="geometry" />
        </mxCell>
        <mxCell id="hudEPNNApawxsZpU8fDK-21" value="Проверка удостоверения личности" style="shape=umlActor;verticalLabelPosition=bottom;verticalAlign=top;html=1;outlineConnect=0;" vertex="1" parent="1">
          <mxGeometry x="710" y="340" width="30" height="60" as="geometry" />
        </mxCell>
        <mxCell id="hudEPNNApawxsZpU8fDK-22" value="Услуга оплаты кредита" style="shape=umlActor;verticalLabelPosition=bottom;verticalAlign=top;html=1;outlineConnect=0;" vertex="1" parent="1">
          <mxGeometry x="710" y="440" width="30" height="60" as="geometry" />
        </mxCell>
        <mxCell id="hudEPNNApawxsZpU8fDK-23" value="&lt;span style=&quot;font-family: Helvetica, &amp;quot;VP Default&amp;quot;; background-color: rgb(248, 249, 250);&quot;&gt;Paypal&lt;/span&gt;" style="shape=umlActor;verticalLabelPosition=bottom;verticalAlign=top;html=1;outlineConnect=0;" vertex="1" parent="1">
          <mxGeometry x="710" y="555" width="30" height="60" as="geometry" />
        </mxCell>
        <mxCell id="hudEPNNApawxsZpU8fDK-37" value="&amp;lt;&amp;lt;include&amp;gt;&amp;gt;" style="edgeStyle=orthogonalEdgeStyle;rounded=0;orthogonalLoop=1;jettySize=auto;html=1;exitX=0.5;exitY=1;exitDx=0;exitDy=0;entryX=0.5;entryY=0;entryDx=0;entryDy=0;dashed=1;endArrow=classic;endFill=1;" edge="1" parent="1" source="hudEPNNApawxsZpU8fDK-17" target="hudEPNNApawxsZpU8fDK-18">
          <mxGeometry relative="1" as="geometry">
            <mxPoint x="434.83" y="440" as="sourcePoint" />
            <mxPoint x="434.83" y="380" as="targetPoint" />
            <mxPoint as="offset" />
          </mxGeometry>
        </mxCell>
        <mxCell id="hudEPNNApawxsZpU8fDK-41" style="edgeStyle=orthogonalEdgeStyle;rounded=0;orthogonalLoop=1;jettySize=auto;html=1;exitX=0.977;exitY=0.637;exitDx=0;exitDy=0;exitPerimeter=0;entryX=0.25;entryY=0.1;entryDx=0;entryDy=0;entryPerimeter=0;endArrow=none;endFill=0;" edge="1" parent="1" source="hudEPNNApawxsZpU8fDK-18" target="hudEPNNApawxsZpU8fDK-21">
          <mxGeometry relative="1" as="geometry">
            <Array as="points">
              <mxPoint x="600" y="491" />
              <mxPoint x="600" y="346" />
            </Array>
          </mxGeometry>
        </mxCell>
        <mxCell id="hudEPNNApawxsZpU8fDK-42" style="edgeStyle=orthogonalEdgeStyle;rounded=0;orthogonalLoop=1;jettySize=auto;html=1;exitX=0.989;exitY=0.4;exitDx=0;exitDy=0;entryX=0.25;entryY=0.1;entryDx=0;entryDy=0;entryPerimeter=0;exitPerimeter=0;endArrow=none;endFill=0;" edge="1" parent="1" source="hudEPNNApawxsZpU8fDK-18" target="hudEPNNApawxsZpU8fDK-20">
          <mxGeometry relative="1" as="geometry">
            <Array as="points">
              <mxPoint x="590" y="472" />
              <mxPoint x="590" y="246" />
            </Array>
          </mxGeometry>
        </mxCell>
        <mxCell id="hudEPNNApawxsZpU8fDK-43" style="edgeStyle=orthogonalEdgeStyle;rounded=0;orthogonalLoop=1;jettySize=auto;html=1;exitX=0.25;exitY=0.1;exitDx=0;exitDy=0;exitPerimeter=0;entryX=0.963;entryY=0.687;entryDx=0;entryDy=0;entryPerimeter=0;endArrow=none;endFill=0;" edge="1" parent="1" source="hudEPNNApawxsZpU8fDK-23" target="hudEPNNApawxsZpU8fDK-18">
          <mxGeometry relative="1" as="geometry" />
        </mxCell>
        <mxCell id="hudEPNNApawxsZpU8fDK-44" style="edgeStyle=orthogonalEdgeStyle;rounded=0;orthogonalLoop=1;jettySize=auto;html=1;exitX=1;exitY=0.5;exitDx=0;exitDy=0;entryX=0.5;entryY=0;entryDx=0;entryDy=0;entryPerimeter=0;endArrow=none;endFill=0;" edge="1" parent="1" source="hudEPNNApawxsZpU8fDK-16" target="hudEPNNApawxsZpU8fDK-20">
          <mxGeometry relative="1" as="geometry" />
        </mxCell>
        <mxCell id="hudEPNNApawxsZpU8fDK-45" style="edgeStyle=orthogonalEdgeStyle;rounded=0;orthogonalLoop=1;jettySize=auto;html=1;exitX=1;exitY=1;exitDx=0;exitDy=0;endArrow=none;endFill=0;" edge="1" parent="1" source="hudEPNNApawxsZpU8fDK-16" target="hudEPNNApawxsZpU8fDK-21">
          <mxGeometry relative="1" as="geometry">
            <Array as="points">
              <mxPoint x="660" y="228" />
              <mxPoint x="660" y="370" />
            </Array>
          </mxGeometry>
        </mxCell>
      </root>
    </mxGraphModel>
  </diagram>
  <diagram id="pH2QpgL2yzzVm4G2JLRn" name="Вариант 2">
    <mxGraphModel dx="1393" dy="755" grid="1" gridSize="10" guides="1" tooltips="1" connect="1" arrows="1" fold="1" page="1" pageScale="1" pageWidth="827" pageHeight="1169" math="0" shadow="0">
      <root>
        <mxCell id="0" />
        <mxCell id="1" parent="0" />
        <mxCell id="zvbJc4JwIXUKEmpNVO9T-8" style="edgeStyle=orthogonalEdgeStyle;rounded=0;orthogonalLoop=1;jettySize=auto;html=1;exitX=0.75;exitY=0.1;exitDx=0;exitDy=0;exitPerimeter=0;entryX=0;entryY=0.5;entryDx=0;entryDy=0;endArrow=none;endFill=0;curved=1;" edge="1" parent="1" source="Zgwb-Wp6EeljAeBBm85R-1" target="zvbJc4JwIXUKEmpNVO9T-2">
          <mxGeometry relative="1" as="geometry" />
        </mxCell>
        <mxCell id="zvbJc4JwIXUKEmpNVO9T-13" style="edgeStyle=orthogonalEdgeStyle;rounded=0;orthogonalLoop=1;jettySize=auto;html=1;exitX=0.75;exitY=0.1;exitDx=0;exitDy=0;exitPerimeter=0;entryX=0;entryY=0.5;entryDx=0;entryDy=0;curved=1;endArrow=none;endFill=0;" edge="1" parent="1" source="Zgwb-Wp6EeljAeBBm85R-1" target="zvbJc4JwIXUKEmpNVO9T-3">
          <mxGeometry relative="1" as="geometry" />
        </mxCell>
        <mxCell id="zvbJc4JwIXUKEmpNVO9T-23" style="edgeStyle=orthogonalEdgeStyle;rounded=0;orthogonalLoop=1;jettySize=auto;html=1;exitX=1;exitY=0.3333333333333333;exitDx=0;exitDy=0;exitPerimeter=0;endArrow=none;endFill=0;curved=1;" edge="1" parent="1" source="Zgwb-Wp6EeljAeBBm85R-1" target="zvbJc4JwIXUKEmpNVO9T-4">
          <mxGeometry relative="1" as="geometry">
            <Array as="points">
              <mxPoint x="100" y="380" />
              <mxPoint x="210" y="380" />
            </Array>
          </mxGeometry>
        </mxCell>
        <mxCell id="Zgwb-Wp6EeljAeBBm85R-1" value="Пользователь" style="shape=umlActor;verticalLabelPosition=bottom;verticalAlign=top;html=1;outlineConnect=0;" vertex="1" parent="1">
          <mxGeometry x="70" y="340" width="30" height="60" as="geometry" />
        </mxCell>
        <mxCell id="Zgwb-Wp6EeljAeBBm85R-9" value="&lt;font color=&quot;#000000&quot; style=&quot;font-size: 14px;&quot; face=&quot;Courier New&quot;&gt;&lt;b&gt;&lt;i&gt;Система онлайн-покупок&lt;/i&gt;&lt;/b&gt;&lt;/font&gt;" style="rounded=0;whiteSpace=wrap;html=1;verticalAlign=top;fillColor=#1FE619;strokeColor=#000000;fontColor=#ffffff;opacity=20;" vertex="1" parent="1">
          <mxGeometry x="180" y="60" width="690" height="620" as="geometry" />
        </mxCell>
        <mxCell id="zvbJc4JwIXUKEmpNVO9T-9" style="edgeStyle=orthogonalEdgeStyle;rounded=0;orthogonalLoop=1;jettySize=auto;html=1;exitX=1;exitY=0.5;exitDx=0;exitDy=0;strokeColor=default;curved=1;dashed=1;endArrow=open;endFill=0;" edge="1" parent="1" source="zvbJc4JwIXUKEmpNVO9T-2" target="zvbJc4JwIXUKEmpNVO9T-7">
          <mxGeometry relative="1" as="geometry" />
        </mxCell>
        <mxCell id="zvbJc4JwIXUKEmpNVO9T-10" value="&amp;lt;&amp;lt;включить&amp;gt;&amp;gt;" style="edgeLabel;align=center;verticalAlign=middle;resizable=0;points=[];labelBackgroundColor=none;labelBorderColor=none;fontColor=default;html=1;fontFamily=Courier New;fontSize=14;" vertex="1" connectable="0" parent="zvbJc4JwIXUKEmpNVO9T-9">
          <mxGeometry x="-0.0618" y="3" relative="1" as="geometry">
            <mxPoint as="offset" />
          </mxGeometry>
        </mxCell>
        <mxCell id="zvbJc4JwIXUKEmpNVO9T-2" value="&lt;span style=&quot;text-align: left;&quot;&gt;Поиск товаров&lt;/span&gt;" style="ellipse;whiteSpace=wrap;html=1;fillColor=none;" vertex="1" parent="1">
          <mxGeometry x="300" y="150" width="160" height="40" as="geometry" />
        </mxCell>
        <mxCell id="zvbJc4JwIXUKEmpNVO9T-14" style="edgeStyle=orthogonalEdgeStyle;rounded=0;orthogonalLoop=1;jettySize=auto;html=1;exitX=1;exitY=0.5;exitDx=0;exitDy=0;entryX=0;entryY=0.5;entryDx=0;entryDy=0;curved=1;dashed=1;endArrow=open;endFill=0;" edge="1" parent="1" source="zvbJc4JwIXUKEmpNVO9T-3" target="zvbJc4JwIXUKEmpNVO9T-11">
          <mxGeometry relative="1" as="geometry">
            <Array as="points">
              <mxPoint x="500" y="290" />
              <mxPoint x="500" y="235" />
            </Array>
          </mxGeometry>
        </mxCell>
        <mxCell id="zvbJc4JwIXUKEmpNVO9T-16" value="&lt;span style=&quot;font-family: &amp;quot;Courier New&amp;quot;; font-size: 14px;&quot;&gt;&amp;lt;&amp;lt;включить&amp;gt;&amp;gt;&lt;/span&gt;" style="edgeLabel;html=1;align=center;verticalAlign=middle;resizable=0;points=[];labelBackgroundColor=none;" vertex="1" connectable="0" parent="zvbJc4JwIXUKEmpNVO9T-14">
          <mxGeometry x="-0.1009" y="6" relative="1" as="geometry">
            <mxPoint as="offset" />
          </mxGeometry>
        </mxCell>
        <mxCell id="zvbJc4JwIXUKEmpNVO9T-15" style="edgeStyle=orthogonalEdgeStyle;rounded=0;orthogonalLoop=1;jettySize=auto;html=1;exitX=1;exitY=0.5;exitDx=0;exitDy=0;curved=1;dashed=1;endArrow=open;endFill=0;" edge="1" parent="1" source="zvbJc4JwIXUKEmpNVO9T-3" target="zvbJc4JwIXUKEmpNVO9T-12">
          <mxGeometry relative="1" as="geometry">
            <Array as="points" />
          </mxGeometry>
        </mxCell>
        <mxCell id="zvbJc4JwIXUKEmpNVO9T-17" value="&lt;span style=&quot;font-family: &amp;quot;Courier New&amp;quot;; font-size: 14px;&quot;&gt;&amp;lt;&amp;lt;включить&amp;gt;&amp;gt;&lt;/span&gt;" style="edgeLabel;html=1;align=center;verticalAlign=middle;resizable=0;points=[];labelBackgroundColor=none;" vertex="1" connectable="0" parent="zvbJc4JwIXUKEmpNVO9T-15">
          <mxGeometry x="0.3149" y="1" relative="1" as="geometry">
            <mxPoint x="-10" y="-14" as="offset" />
          </mxGeometry>
        </mxCell>
        <mxCell id="zvbJc4JwIXUKEmpNVO9T-3" value="&lt;div style=&quot;text-align: left;&quot;&gt;&lt;span style=&quot;background-color: initial;&quot;&gt;Добавить в корзину&lt;/span&gt;&lt;/div&gt;" style="ellipse;whiteSpace=wrap;html=1;fillColor=none;" vertex="1" parent="1">
          <mxGeometry x="300" y="270" width="160" height="40" as="geometry" />
        </mxCell>
        <mxCell id="zvbJc4JwIXUKEmpNVO9T-34" style="edgeStyle=orthogonalEdgeStyle;rounded=0;orthogonalLoop=1;jettySize=auto;html=1;exitX=1;exitY=0.5;exitDx=0;exitDy=0;entryX=0;entryY=0.5;entryDx=0;entryDy=0;curved=1;dashed=1;endArrow=open;endFill=0;" edge="1" parent="1" source="zvbJc4JwIXUKEmpNVO9T-4" target="zvbJc4JwIXUKEmpNVO9T-18">
          <mxGeometry relative="1" as="geometry" />
        </mxCell>
        <mxCell id="zvbJc4JwIXUKEmpNVO9T-38" value="&lt;span style=&quot;font-family: &amp;quot;Courier New&amp;quot;; font-size: 14px;&quot;&gt;&amp;lt;&amp;lt;включить&amp;gt;&amp;gt;&lt;/span&gt;" style="edgeLabel;html=1;align=center;verticalAlign=middle;resizable=0;points=[];labelBackgroundColor=none;" vertex="1" connectable="0" parent="zvbJc4JwIXUKEmpNVO9T-34">
          <mxGeometry x="0.4381" y="-4" relative="1" as="geometry">
            <mxPoint as="offset" />
          </mxGeometry>
        </mxCell>
        <mxCell id="zvbJc4JwIXUKEmpNVO9T-36" style="edgeStyle=orthogonalEdgeStyle;rounded=0;orthogonalLoop=1;jettySize=auto;html=1;exitX=1;exitY=0.5;exitDx=0;exitDy=0;entryX=0;entryY=0.5;entryDx=0;entryDy=0;curved=1;endArrow=open;endFill=0;dashed=1;" edge="1" parent="1" source="zvbJc4JwIXUKEmpNVO9T-4" target="zvbJc4JwIXUKEmpNVO9T-20">
          <mxGeometry relative="1" as="geometry" />
        </mxCell>
        <mxCell id="zvbJc4JwIXUKEmpNVO9T-40" value="&lt;span style=&quot;font-family: &amp;quot;Courier New&amp;quot;; font-size: 14px;&quot;&gt;&amp;lt;&amp;lt;включить&amp;gt;&amp;gt;&lt;/span&gt;" style="edgeLabel;html=1;align=center;verticalAlign=middle;resizable=0;points=[];labelBackgroundColor=none;" vertex="1" connectable="0" parent="zvbJc4JwIXUKEmpNVO9T-36">
          <mxGeometry x="0.3952" y="12" relative="1" as="geometry">
            <mxPoint as="offset" />
          </mxGeometry>
        </mxCell>
        <mxCell id="zvbJc4JwIXUKEmpNVO9T-4" value="&lt;div style=&quot;text-align: left;&quot;&gt;Оформить заказ&amp;nbsp;&lt;/div&gt;" style="ellipse;whiteSpace=wrap;html=1;fillColor=none;" vertex="1" parent="1">
          <mxGeometry x="260" y="390" width="160" height="40" as="geometry" />
        </mxCell>
        <mxCell id="zvbJc4JwIXUKEmpNVO9T-5" value="&lt;div style=&quot;text-align: left;&quot;&gt;&lt;span style=&quot;background-color: initial;&quot;&gt;Управление аккаунтом&lt;/span&gt;&lt;/div&gt;" style="ellipse;whiteSpace=wrap;html=1;fillColor=none;" vertex="1" parent="1">
          <mxGeometry x="260" y="545" width="160" height="40" as="geometry" />
        </mxCell>
        <mxCell id="zvbJc4JwIXUKEmpNVO9T-7" value="&lt;div style=&quot;text-align: left;&quot;&gt;Детальный просмотр товара&lt;/div&gt;" style="ellipse;whiteSpace=wrap;html=1;fillColor=none;" vertex="1" parent="1">
          <mxGeometry x="590" y="110" width="200" height="50" as="geometry" />
        </mxCell>
        <mxCell id="zvbJc4JwIXUKEmpNVO9T-11" value="&lt;div style=&quot;text-align: left;&quot;&gt;Обновить корзину&lt;/div&gt;" style="ellipse;whiteSpace=wrap;html=1;fillColor=none;" vertex="1" parent="1">
          <mxGeometry x="590" y="210" width="200" height="40" as="geometry" />
        </mxCell>
        <mxCell id="zvbJc4JwIXUKEmpNVO9T-12" value="&lt;div style=&quot;text-align: left;&quot;&gt;Посмотреть корзину&lt;/div&gt;" style="ellipse;whiteSpace=wrap;html=1;fillColor=none;" vertex="1" parent="1">
          <mxGeometry x="590" y="280" width="200" height="40" as="geometry" />
        </mxCell>
        <mxCell id="zvbJc4JwIXUKEmpNVO9T-18" value="&lt;div style=&quot;text-align: left;&quot;&gt;Разместить заказ&lt;/div&gt;" style="ellipse;whiteSpace=wrap;html=1;fillColor=none;" vertex="1" parent="1">
          <mxGeometry x="590" y="350" width="200" height="40" as="geometry" />
        </mxCell>
        <mxCell id="zvbJc4JwIXUKEmpNVO9T-19" value="&lt;div style=&quot;text-align: left;&quot;&gt;Выбрать способ оплаты&lt;/div&gt;" style="ellipse;whiteSpace=wrap;html=1;fillColor=none;" vertex="1" parent="1">
          <mxGeometry x="590" y="400" width="200" height="40" as="geometry" />
        </mxCell>
        <mxCell id="zvbJc4JwIXUKEmpNVO9T-20" value="&lt;div style=&quot;text-align: left;&quot;&gt;Выбрать адрес доставки&lt;/div&gt;" style="ellipse;whiteSpace=wrap;html=1;fillColor=none;" vertex="1" parent="1">
          <mxGeometry x="590" y="450" width="200" height="40" as="geometry" />
        </mxCell>
        <mxCell id="zvbJc4JwIXUKEmpNVO9T-21" value="&lt;div style=&quot;text-align: left;&quot;&gt;Обновить профиль&lt;/div&gt;" style="ellipse;whiteSpace=wrap;html=1;fillColor=none;" vertex="1" parent="1">
          <mxGeometry x="590" y="520" width="200" height="40" as="geometry" />
        </mxCell>
        <mxCell id="zvbJc4JwIXUKEmpNVO9T-22" value="&lt;div style=&quot;text-align: left;&quot;&gt;Просмотр истории заказов&lt;/div&gt;" style="ellipse;whiteSpace=wrap;html=1;fillColor=none;" vertex="1" parent="1">
          <mxGeometry x="590" y="610" width="200" height="40" as="geometry" />
        </mxCell>
        <mxCell id="zvbJc4JwIXUKEmpNVO9T-29" value="" style="endArrow=none;html=1;rounded=0;exitX=1;exitY=1;exitDx=0;exitDy=0;exitPerimeter=0;entryX=0.252;entryY=0.041;entryDx=0;entryDy=0;entryPerimeter=0;endFill=0;curved=1;" edge="1" parent="1" target="zvbJc4JwIXUKEmpNVO9T-5">
          <mxGeometry width="50" height="50" relative="1" as="geometry">
            <mxPoint x="110" y="400" as="sourcePoint" />
            <mxPoint x="276.55999999999995" y="558.9200000000001" as="targetPoint" />
            <Array as="points">
              <mxPoint x="170" y="410" />
              <mxPoint x="220" y="460" />
            </Array>
          </mxGeometry>
        </mxCell>
        <mxCell id="zvbJc4JwIXUKEmpNVO9T-30" style="edgeStyle=orthogonalEdgeStyle;rounded=0;orthogonalLoop=1;jettySize=auto;html=1;exitX=1;exitY=0.5;exitDx=0;exitDy=0;entryX=0.036;entryY=0.306;entryDx=0;entryDy=0;entryPerimeter=0;dashed=1;endArrow=open;endFill=0;curved=1;" edge="1" parent="1" source="zvbJc4JwIXUKEmpNVO9T-5" target="zvbJc4JwIXUKEmpNVO9T-21">
          <mxGeometry relative="1" as="geometry" />
        </mxCell>
        <mxCell id="zvbJc4JwIXUKEmpNVO9T-32" value="&lt;span style=&quot;font-family: &amp;quot;Courier New&amp;quot;; font-size: 14px;&quot;&gt;&amp;lt;&amp;lt;включить&amp;gt;&amp;gt;&lt;/span&gt;" style="edgeLabel;html=1;align=center;verticalAlign=middle;resizable=0;points=[];labelBackgroundColor=none;" vertex="1" connectable="0" parent="zvbJc4JwIXUKEmpNVO9T-30">
          <mxGeometry x="-0.0507" y="-2" relative="1" as="geometry">
            <mxPoint as="offset" />
          </mxGeometry>
        </mxCell>
        <mxCell id="zvbJc4JwIXUKEmpNVO9T-31" style="edgeStyle=orthogonalEdgeStyle;rounded=0;orthogonalLoop=1;jettySize=auto;html=1;exitX=1;exitY=0.5;exitDx=0;exitDy=0;curved=1;dashed=1;endArrow=open;endFill=0;entryX=0.004;entryY=0.448;entryDx=0;entryDy=0;entryPerimeter=0;" edge="1" parent="1" source="zvbJc4JwIXUKEmpNVO9T-5" target="zvbJc4JwIXUKEmpNVO9T-22">
          <mxGeometry relative="1" as="geometry">
            <Array as="points">
              <mxPoint x="420" y="600" />
              <mxPoint x="550" y="600" />
              <mxPoint x="550" y="628" />
            </Array>
          </mxGeometry>
        </mxCell>
        <mxCell id="zvbJc4JwIXUKEmpNVO9T-33" value="&lt;span style=&quot;font-family: &amp;quot;Courier New&amp;quot;; font-size: 14px;&quot;&gt;&amp;lt;&amp;lt;включить&amp;gt;&amp;gt;&lt;/span&gt;" style="edgeLabel;html=1;align=center;verticalAlign=middle;resizable=0;points=[];labelBackgroundColor=none;" vertex="1" connectable="0" parent="zvbJc4JwIXUKEmpNVO9T-31">
          <mxGeometry x="0.1432" y="-1" relative="1" as="geometry">
            <mxPoint as="offset" />
          </mxGeometry>
        </mxCell>
        <mxCell id="zvbJc4JwIXUKEmpNVO9T-35" style="edgeStyle=orthogonalEdgeStyle;rounded=0;orthogonalLoop=1;jettySize=auto;html=1;exitX=1;exitY=0.5;exitDx=0;exitDy=0;entryX=0;entryY=0.5;entryDx=0;entryDy=0;curved=1;dashed=1;endArrow=open;endFill=0;" edge="1" parent="1" source="zvbJc4JwIXUKEmpNVO9T-4" target="zvbJc4JwIXUKEmpNVO9T-19">
          <mxGeometry relative="1" as="geometry" />
        </mxCell>
        <mxCell id="zvbJc4JwIXUKEmpNVO9T-39" value="&lt;span style=&quot;font-family: &amp;quot;Courier New&amp;quot;; font-size: 14px;&quot;&gt;&amp;lt;&amp;lt;включить&amp;gt;&amp;gt;&lt;/span&gt;" style="edgeLabel;html=1;align=center;verticalAlign=middle;resizable=0;points=[];labelBackgroundColor=none;" vertex="1" connectable="0" parent="zvbJc4JwIXUKEmpNVO9T-35">
          <mxGeometry x="0.3691" y="2" relative="1" as="geometry">
            <mxPoint as="offset" />
          </mxGeometry>
        </mxCell>
      </root>
    </mxGraphModel>
  </diagram>
</mxfile>
